# xmcd
#
# Track frame offsets: 
#        150
#        13216
#        27704
#        42668
#        57190
#        69268
#        81946
#        96052
#        114048
#        128220
#        140124
#        151532
#        166358
#
# Disc length: 2372 seconds
#
# Revision: 0
# Processed by: cddbd v1.5.2PL0 Copyright (c) Steve Scherf et al.
# Submitted via: ExactAudioCopyFreeDBPlugin 1.0
#
DISCID=aa09420d
DTITLE=Claudettes - Infernal Piano Plot...Hatched!
DYEAR=2013
DGENRE=Blues
TTITLE0=Stumblin' Home Satisfied
TTITLE1=Big Sucker Punch
TTITLE2=Hammer And Tickle
TTITLE3=Tide Pool
TTITLE4=Deep Soul For High Society
TTITLE5=New Oreleans Yard Sale (New 11-Bar Blues)
TTITLE6=Infernal Piano Plot...Hatched!
TTITLE7=Serenading The Clean-Up Crew
TTITLE8=Tremblin' Blues
TTITLE9=Motorhome
TTITLE10=Land Of Precisely Three Dances
TTITLE11=Chin-Up Tango
TTITLE12=Do You See It Too
EXTD=
EXTT0=
EXTT1=
EXTT2=
EXTT3=
EXTT4=
EXTT5=
EXTT6=
EXTT7=
EXTT8=
EXTT9=
EXTT10=
EXTT11=
EXTT12=
PLAYORDER=
